<mxfile host="Electron" modified="2024-05-03T09:01:25.876Z" agent="Mozilla/5.0 (Windows NT 10.0; Win64; x64) AppleWebKit/537.36 (KHTML, like Gecko) draw.io/24.2.5 Chrome/120.0.6099.109 Electron/28.1.0 Safari/537.36" etag="KSDnfYO-YRUn02mGal6w" version="24.2.5" type="device">
  <diagram name="Page-1" id="929967ad-93f9-6ef4-fab6-5d389245f69c">
    <mxGraphModel dx="2074" dy="836" grid="1" gridSize="10" guides="1" tooltips="1" connect="1" arrows="1" fold="1" page="1" pageScale="1.5" pageWidth="1169" pageHeight="826" background="none" math="0" shadow="0">
      <root>
        <mxCell id="0" style=";html=1;" />
        <mxCell id="1" style=";html=1;" parent="0" />
        <mxCell id="m4DGoK2CZkguBJeFyLmD-17" value="«interface»&lt;br&gt;&lt;b&gt;Controller&lt;/b&gt;" style="html=1;whiteSpace=wrap;fillColor=#f5f5f5;strokeColor=#666666;fontColor=#333333;" parent="1" vertex="1">
          <mxGeometry x="880" y="360" width="200" height="40" as="geometry" />
        </mxCell>
        <mxCell id="m4DGoK2CZkguBJeFyLmD-18" value="«interface»&lt;br&gt;&lt;b&gt;Mission&lt;/b&gt;" style="html=1;whiteSpace=wrap;fillColor=#f5f5f5;fontColor=#333333;strokeColor=#666666;" parent="1" vertex="1">
          <mxGeometry x="1200" y="360" width="200" height="40" as="geometry" />
        </mxCell>
        <mxCell id="m4DGoK2CZkguBJeFyLmD-21" value="&lt;h1 style=&quot;margin-top: 0px;&quot;&gt;Description:&amp;nbsp;&amp;nbsp;&lt;/h1&gt;&lt;p&gt;This assigment want a program that can control vehicles in parallel by using threads.&amp;nbsp;&lt;/p&gt;&lt;p&gt;&lt;b&gt;- The Mission&lt;/b&gt; class sets the trajectories and assigned for each vehicle.&amp;nbsp;&lt;/p&gt;&lt;p&gt;&lt;b&gt;- The Control&lt;/b&gt; class is a generic class to handle waypoints (setgoals) and control method for reaching each goal. (It has some virtual function to be implemented by it&#39;s children which are Ankerman and Drone.&lt;/p&gt;&lt;p&gt;&lt;span style=&quot;background-color: initial;&quot;&gt;&lt;b&gt;- Ankerman + Quadcopter&lt;/b&gt; are inherited from Control and specified for it&#39;s kind of vehicle&lt;/span&gt;&lt;/p&gt;&lt;p&gt;&lt;span style=&quot;background-color: initial;&quot;&gt;&lt;b&gt;- Threading&lt;/b&gt;: the program have two child-threads that detached from the main thread by &lt;b&gt;&lt;i&gt;Controler::Run()&lt;/i&gt;&lt;/b&gt; and control vehicle&#39;s by &lt;b&gt;&lt;i&gt;Controller::reachGoalQueue()&lt;/i&gt;&lt;/b&gt;.&lt;/span&gt;&lt;/p&gt;" style="text;html=1;whiteSpace=wrap;overflow=hidden;rounded=0;" parent="1" vertex="1">
          <mxGeometry x="520" y="280" width="320" height="320" as="geometry" />
        </mxCell>
        <mxCell id="m4DGoK2CZkguBJeFyLmD-22" value="Controller" style="swimlane;fontStyle=1;childLayout=stackLayout;horizontal=1;startSize=30;horizontalStack=0;resizeParent=1;resizeParentMax=0;resizeLast=0;collapsible=1;marginBottom=0;whiteSpace=wrap;html=1;fillColor=#d5e8d4;strokeColor=#82b366;" parent="1" vertex="1">
          <mxGeometry x="880" y="440" width="200" height="120" as="geometry" />
        </mxCell>
        <mxCell id="m4DGoK2CZkguBJeFyLmD-23" value="- Generic functions and variables" style="text;strokeColor=none;fillColor=none;align=left;verticalAlign=middle;spacingLeft=4;spacingRight=4;overflow=hidden;points=[[0,0.5],[1,0.5]];portConstraint=eastwest;rotatable=0;whiteSpace=wrap;html=1;" parent="m4DGoK2CZkguBJeFyLmD-22" vertex="1">
          <mxGeometry y="30" width="200" height="30" as="geometry" />
        </mxCell>
        <mxCell id="m4DGoK2CZkguBJeFyLmD-24" value="- Waypoints: load - check goals" style="text;strokeColor=none;fillColor=none;align=left;verticalAlign=middle;spacingLeft=4;spacingRight=4;overflow=hidden;points=[[0,0.5],[1,0.5]];portConstraint=eastwest;rotatable=0;whiteSpace=wrap;html=1;" parent="m4DGoK2CZkguBJeFyLmD-22" vertex="1">
          <mxGeometry y="60" width="200" height="30" as="geometry" />
        </mxCell>
        <mxCell id="m4DGoK2CZkguBJeFyLmD-25" value="- Spawning a exteral thread to control vehicle&amp;nbsp;" style="text;strokeColor=none;fillColor=none;align=left;verticalAlign=middle;spacingLeft=4;spacingRight=4;overflow=hidden;points=[[0,0.5],[1,0.5]];portConstraint=eastwest;rotatable=0;whiteSpace=wrap;html=1;" parent="m4DGoK2CZkguBJeFyLmD-22" vertex="1">
          <mxGeometry y="90" width="200" height="30" as="geometry" />
        </mxCell>
        <mxCell id="m4DGoK2CZkguBJeFyLmD-28" value="Mission" style="swimlane;fontStyle=1;childLayout=stackLayout;horizontal=1;startSize=30;horizontalStack=0;resizeParent=1;resizeParentMax=0;resizeLast=0;collapsible=1;marginBottom=0;whiteSpace=wrap;html=1;fillColor=#d5e8d4;strokeColor=#82b366;" parent="1" vertex="1">
          <mxGeometry x="1200" y="440" width="200" height="120" as="geometry" />
        </mxCell>
        <mxCell id="m4DGoK2CZkguBJeFyLmD-29" value="- Maintain controllers" style="text;strokeColor=none;fillColor=none;align=left;verticalAlign=middle;spacingLeft=4;spacingRight=4;overflow=hidden;points=[[0,0.5],[1,0.5]];portConstraint=eastwest;rotatable=0;whiteSpace=wrap;html=1;" parent="m4DGoK2CZkguBJeFyLmD-28" vertex="1">
          <mxGeometry y="30" width="200" height="30" as="geometry" />
        </mxCell>
        <mxCell id="m4DGoK2CZkguBJeFyLmD-30" value="- Create and set waypoints" style="text;strokeColor=none;fillColor=none;align=left;verticalAlign=middle;spacingLeft=4;spacingRight=4;overflow=hidden;points=[[0,0.5],[1,0.5]];portConstraint=eastwest;rotatable=0;whiteSpace=wrap;html=1;" parent="m4DGoK2CZkguBJeFyLmD-28" vertex="1">
          <mxGeometry y="60" width="200" height="30" as="geometry" />
        </mxCell>
        <mxCell id="m4DGoK2CZkguBJeFyLmD-31" value="- Spawning a thread to control vehicle status. (main thread)" style="text;strokeColor=none;fillColor=none;align=left;verticalAlign=middle;spacingLeft=4;spacingRight=4;overflow=hidden;points=[[0,0.5],[1,0.5]];portConstraint=eastwest;rotatable=0;whiteSpace=wrap;html=1;" parent="m4DGoK2CZkguBJeFyLmD-28" vertex="1">
          <mxGeometry y="90" width="200" height="30" as="geometry" />
        </mxCell>
        <mxCell id="m4DGoK2CZkguBJeFyLmD-33" value="Lecture&#39;s testing system" style="rounded=1;whiteSpace=wrap;html=1;fillColor=#dae8fc;strokeColor=#6c8ebf;" parent="1" vertex="1">
          <mxGeometry x="880" y="280" width="530" height="40" as="geometry" />
        </mxCell>
        <mxCell id="m4DGoK2CZkguBJeFyLmD-34" value="" style="endArrow=classic;startArrow=classic;html=1;rounded=0;entryX=0;entryY=0.5;entryDx=0;entryDy=0;exitX=1;exitY=0.5;exitDx=0;exitDy=0;dashed=1;" parent="1" edge="1">
          <mxGeometry width="50" height="50" relative="1" as="geometry">
            <mxPoint x="1080" y="499.5" as="sourcePoint" />
            <mxPoint x="1200" y="499.5" as="targetPoint" />
          </mxGeometry>
        </mxCell>
        <mxCell id="m4DGoK2CZkguBJeFyLmD-36" value="Ackerman" style="swimlane;fontStyle=1;align=center;verticalAlign=top;childLayout=stackLayout;horizontal=1;startSize=26;horizontalStack=0;resizeParent=1;resizeParentMax=0;resizeLast=0;collapsible=1;marginBottom=0;whiteSpace=wrap;html=1;fillColor=#fff2cc;strokeColor=#d6b656;" parent="1" vertex="1">
          <mxGeometry x="840" y="600" width="120" height="86" as="geometry" />
        </mxCell>
        <mxCell id="m4DGoK2CZkguBJeFyLmD-37" value="+ reachGoal" style="text;strokeColor=none;fillColor=none;align=left;verticalAlign=top;spacingLeft=4;spacingRight=4;overflow=hidden;rotatable=0;points=[[0,0.5],[1,0.5]];portConstraint=eastwest;whiteSpace=wrap;html=1;" parent="m4DGoK2CZkguBJeFyLmD-36" vertex="1">
          <mxGeometry y="26" width="120" height="26" as="geometry" />
        </mxCell>
        <mxCell id="m4DGoK2CZkguBJeFyLmD-38" value="" style="line;strokeWidth=1;fillColor=none;align=left;verticalAlign=middle;spacingTop=-1;spacingLeft=3;spacingRight=3;rotatable=0;labelPosition=right;points=[];portConstraint=eastwest;strokeColor=inherit;" parent="m4DGoK2CZkguBJeFyLmD-36" vertex="1">
          <mxGeometry y="52" width="120" height="8" as="geometry" />
        </mxCell>
        <mxCell id="m4DGoK2CZkguBJeFyLmD-39" value="+ calcNewGoal" style="text;strokeColor=none;fillColor=none;align=left;verticalAlign=top;spacingLeft=4;spacingRight=4;overflow=hidden;rotatable=0;points=[[0,0.5],[1,0.5]];portConstraint=eastwest;whiteSpace=wrap;html=1;" parent="m4DGoK2CZkguBJeFyLmD-36" vertex="1">
          <mxGeometry y="60" width="120" height="26" as="geometry" />
        </mxCell>
        <mxCell id="m4DGoK2CZkguBJeFyLmD-40" value="QuadCopter" style="swimlane;fontStyle=1;align=center;verticalAlign=top;childLayout=stackLayout;horizontal=1;startSize=26;horizontalStack=0;resizeParent=1;resizeParentMax=0;resizeLast=0;collapsible=1;marginBottom=0;whiteSpace=wrap;html=1;fillColor=#f8cecc;strokeColor=#b85450;" parent="1" vertex="1">
          <mxGeometry x="1000" y="600" width="120" height="86" as="geometry" />
        </mxCell>
        <mxCell id="m4DGoK2CZkguBJeFyLmD-41" value="+ reachGoal" style="text;strokeColor=none;fillColor=none;align=left;verticalAlign=top;spacingLeft=4;spacingRight=4;overflow=hidden;rotatable=0;points=[[0,0.5],[1,0.5]];portConstraint=eastwest;whiteSpace=wrap;html=1;" parent="m4DGoK2CZkguBJeFyLmD-40" vertex="1">
          <mxGeometry y="26" width="120" height="26" as="geometry" />
        </mxCell>
        <mxCell id="m4DGoK2CZkguBJeFyLmD-42" value="" style="line;strokeWidth=1;fillColor=none;align=left;verticalAlign=middle;spacingTop=-1;spacingLeft=3;spacingRight=3;rotatable=0;labelPosition=right;points=[];portConstraint=eastwest;strokeColor=inherit;" parent="m4DGoK2CZkguBJeFyLmD-40" vertex="1">
          <mxGeometry y="52" width="120" height="8" as="geometry" />
        </mxCell>
        <mxCell id="m4DGoK2CZkguBJeFyLmD-43" value="+ calcNewGoal" style="text;strokeColor=none;fillColor=none;align=left;verticalAlign=top;spacingLeft=4;spacingRight=4;overflow=hidden;rotatable=0;points=[[0,0.5],[1,0.5]];portConstraint=eastwest;whiteSpace=wrap;html=1;" parent="m4DGoK2CZkguBJeFyLmD-40" vertex="1">
          <mxGeometry y="60" width="120" height="26" as="geometry" />
        </mxCell>
      </root>
    </mxGraphModel>
  </diagram>
</mxfile>
